PathFileType	4	(X/Y/Z)	s06c0101.trc
DataRate	CameraRate	NumFrames	NumMarkers	Units	OrigDataRate	OrigDataStartFrame	OrigNumFrames
200	200	7	49	mm	200	1500	2000
Frame#	Time	racr			lacr			c7			jug			rlel			rdr			llel			ldr			s2			lic			ric			lasi			rasi			rpsi			lpsi			rgt			lgt			rth1			rth2			rth3			rth4			rlfc			rmfc			rsh1			rsh2			rsh3			rsh4			rlmal			rmmal			rcal			rtoe			rmt5			lth1			lth2			lth4			lth3			llfc			lmfc			llmal			lcal			lmt5			lsh1			lsh2			lsh3			lsh4			ltoe			SBIKE			LBIKE			RBIKE			
		X1	Y1	Z1	X2	Y2	Z2	X3	Y3	Z3	X4	Y4	Z4	X5	Y5	Z5	X6	Y6	Z6	X7	Y7	Z7	X8	Y8	Z8	X9	Y9	Z9	X10	Y10	Z10	X11	Y11	Z11	X12	Y12	Z12	X13	Y13	Z13	X14	Y14	Z14	X15	Y15	Z15	X16	Y16	Z16	X17	Y17	Z17	X18	Y18	Z18	X19	Y19	Z19	X20	Y20	Z20	X21	Y21	Z21	X22	Y22	Z22	X23	Y23	Z23	X24	Y24	Z24	X25	Y25	Z25	X26	Y26	Z26	X27	Y27	Z27	X28	Y28	Z28	X29	Y29	Z29	X30	Y30	Z30	X31	Y31	Z31	X32	Y32	Z32	X33	Y33	Z33	X34	Y34	Z34	X35	Y35	Z35	X36	Y36	Z36	X37	Y37	Z37	X38	Y38	Z38	X39	Y39	Z39	X40	Y40	Z40	X41	Y41	Z41	X42	Y42	Z42	X43	Y43	Z43	X44	Y44	Z44	X45	Y45	Z45	X46	Y46	Z46	X47	Y47	Z47	X48	Y48	Z48	X49	Y49	Z49	
1500	7.5000	504.484680	1260.172779	-84.597431	522.367063	1236.621148	-370.447063	515.946289	1317.390044	-230.935737	472.938127	1151.802304	-220.440059	509.138009	1032.304416	42.674939	707.435612	932.555097	-51.960586	486.382514	993.467988	-477.501856	702.846781	922.152417	-418.098612	-45.324944	1172.047660	-238.050428	120.054647	1126.802527	-401.927474	87.191091	1158.017656	-76.630867	138.184203	1076.279313	-367.756909	113.476058	1106.782147	-104.313565	-11.181109	1217.694995	-216.441416	-13.014175	1204.771524	-275.894458	80.051966	1112.389653	-37.277733	80.243961	1043.242251	-430.780527	187.839269	1056.720354	-35.453193	276.904165	1043.001881	-43.460860	345.008044	988.799171	-45.155946	287.213706	1072.631562	-65.454299	418.507627	916.924371	-70.963208	408.611696	891.386783	-186.584504	370.268941	802.400649	-45.817023	345.706507	719.849016	-64.214610	286.749067	656.436821	-62.999475	366.987867	711.504985	-97.237961	234.123318	582.449333	-67.875425	270.531217	575.622488	-158.253624	165.999451	565.548591	-115.392194	421.512357	460.723094	-106.439924	321.726310	475.261825	-39.773456	109.853066	913.999773	-448.224140	166.774233	847.830557	-443.527240	199.713153	863.824047	-434.885039	182.487401	760.412580	-433.693848	209.864120	649.792809	-405.275518	212.847891	637.819666	-287.118102	80.054513	309.436320	-375.162519	15.943239	321.566776	-327.962546	145.729301	175.663193	-406.673158	178.256774	548.208909	-421.218460	168.407159	465.100157	-398.137472	119.326712	392.414443	-397.000849	195.147976	460.446390	-369.704331	220.365515	128.445255	-352.193694	-204.969500	868.578619	-220.862770	-50.401576	79.900179	-420.283186	-50.360206	79.954370	-22.848716	
1501	7.5050	505.079838	1259.090248	-85.233800	522.440604	1234.725827	-371.452394	516.351439	1316.508085	-231.818122	473.218909	1150.934946	-221.350519	508.347259	1030.933559	42.133040	707.234022	932.461968	-52.247686	485.674613	991.231112	-477.907485	702.368934	921.905604	-418.326786	-45.214354	1172.537533	-238.990943	119.334708	1126.438185	-402.206211	87.642614	1157.991004	-77.011219	137.196551	1075.664350	-368.177694	114.188359	1106.989933	-104.887733	-11.050612	1218.054038	-216.967507	-13.710353	1204.954706	-274.298940	80.309777	1111.629408	-37.653271	79.244319	1043.292787	-431.427547	187.606850	1053.289162	-35.915743	276.473001	1037.859583	-44.327860	343.635652	982.866281	-46.299798	287.262819	1067.732796	-67.344537	416.414220	910.141351	-72.668852	406.387828	883.616300	-187.240799	368.713036	794.844256	-45.804916	345.692540	711.799814	-64.144758	287.867500	647.384548	-62.837402	367.196818	703.712020	-97.155286	236.905018	572.178685	-67.488971	273.070736	566.793563	-158.307173	169.461333	552.625732	-114.939979	428.814282	458.560242	-106.508545	328.556665	468.788345	-39.526424	110.438817	914.617481	-448.656273	168.660539	849.595311	-443.734738	201.227051	866.255354	-435.040718	186.187273	762.512940	-433.539197	214.891996	652.866103	-405.758626	216.776929	641.830539	-287.370131	75.150450	316.508911	-374.922334	11.124870	330.131826	-327.622783	137.710128	181.584441	-406.558534	181.053587	551.856205	-421.222606	168.505690	469.027432	-397.255393	117.723257	397.911795	-396.679570	194.678011	463.873844	-368.108005	211.375490	132.813990	-352.185727	-204.953515	868.560167	-220.799861	-50.302588	79.722697	-419.958887	-50.420670	80.236462	-22.611738	
1502	7.5100	505.699510	1258.038089	-85.884128	522.419817	1232.924901	-372.419219	516.683403	1315.590512	-232.862237	473.528593	1150.014825	-222.275482	507.130291	1030.004354	41.803104	706.948806	932.335397	-52.569702	485.105876	989.261547	-478.433065	701.927847	921.757961	-418.614849	-45.265350	1172.901718	-239.268531	118.699928	1126.056636	-402.613796	88.075317	1157.586200	-77.201238	136.246432	1075.205539	-368.784488	114.923418	1106.843757	-105.269804	-10.898906	1217.933591	-217.222818	-13.983333	1205.008478	-273.763787	80.504499	1110.305082	-37.745964	78.285919	1043.416447	-432.121353	187.639309	1049.563696	-36.327649	275.932921	1032.168483	-45.486507	342.147732	976.185826	-47.250118	287.308385	1061.798333	-68.545821	414.132330	902.519056	-73.337534	403.921857	875.497404	-188.346531	367.020037	786.394373	-45.851271	345.528120	702.853067	-64.059542	288.861391	637.390819	-62.738891	367.217126	695.084018	-97.085803	239.609844	561.209241	-67.244110	275.583615	556.982224	-158.430615	172.912022	538.983251	-114.818889	435.578167	455.397877	-106.433171	335.077973	461.649466	-39.178830	111.346055	915.495950	-449.051381	170.901302	851.759924	-443.987505	203.084607	869.018582	-435.283495	190.211782	765.022999	-433.799148	220.167627	656.107630	-406.292890	221.555788	645.881892	-287.932665	70.584115	323.959859	-374.802758	6.739993	339.120500	-327.376142	130.099432	188.107885	-406.581487	184.076511	555.731756	-421.516530	168.972037	473.522385	-397.074224	116.297339	403.713663	-396.424907	194.661544	467.702770	-367.404501	202.349070	137.004371	-351.305203	-204.938318	868.522842	-220.779495	-50.388611	79.884850	-420.181172	-50.365601	79.900234	-22.834577	
1503	7.5150	506.269666	1257.323473	-86.415029	522.315355	1231.318226	-373.500083	516.913037	1314.756803	-233.917895	473.788640	1149.185202	-222.902164	506.293736	1028.727795	41.020056	706.567615	932.159210	-52.867578	484.501268	987.732277	-479.295069	701.464500	921.631136	-418.978975	-45.455548	1172.904501	-238.318146	118.183938	1125.616148	-402.925269	88.611596	1156.809403	-77.454409	135.376170	1074.474107	-369.453734	116.038804	1106.577680	-105.889781	-10.693574	1217.070368	-216.746642	-13.921545	1204.920479	-274.044773	80.798681	1108.220728	-38.122705	77.299362	1043.690618	-432.662400	187.246578	1045.007018	-36.625338	275.389137	1025.947931	-46.930594	340.294513	968.267696	-48.289100	287.384557	1055.135363	-69.075788	411.410057	893.813223	-73.227891	401.232329	866.240158	-188.638995	364.783860	777.098071	-45.966585	345.431070	692.946102	-63.998987	290.043366	626.388811	-62.626598	367.211084	685.592216	-97.019225	242.366003	549.541462	-67.178793	278.346350	546.168285	-158.610390	176.203543	524.940840	-114.688631	441.917037	451.210333	-106.175710	341.280644	453.715963	-38.931850	112.464663	916.623087	-449.445329	173.491124	854.238363	-444.271290	205.226411	872.354252	-435.515107	194.841639	767.939781	-434.295777	225.721458	659.492185	-407.124823	227.009414	650.036740	-288.850035	66.423484	331.902534	-374.792257	2.787812	348.547211	-327.268824	122.784242	194.960138	-406.481072	187.225562	559.761625	-422.067253	169.596215	478.182075	-397.098596	115.032323	409.971326	-396.421637	194.902986	471.937572	-367.236895	193.991675	142.247533	-351.274573	-204.939055	868.444468	-220.779946	-50.384211	79.837002	-420.196258	-50.346966	79.698091	-22.823034	
1504	7.5200	506.888757	1256.781955	-86.886898	522.179314	1229.930646	-374.430015	517.087650	1314.077270	-235.079320	474.161317	1148.474571	-223.531351	505.372557	1027.505975	40.147761	706.170236	931.928086	-53.136614	484.027614	986.614082	-480.350844	701.010707	921.545531	-419.446844	-45.452223	1172.922409	-239.509671	117.821154	1125.107337	-403.186138	89.233877	1155.290798	-77.729812	134.601062	1073.751945	-370.017811	116.677292	1105.284887	-106.555103	-10.181261	1216.822933	-216.770001	-13.764990	1204.349183	-274.316009	81.282838	1105.903262	-38.460088	76.582785	1043.997954	-433.512944	187.112815	1040.364061	-36.944157	274.955212	1019.906944	-46.816070	338.371599	960.276245	-48.917984	287.382297	1048.499765	-68.591414	408.316262	884.199717	-75.114109	398.403347	855.954467	-188.455275	363.177603	766.812226	-46.574128	345.397906	682.395000	-64.047620	291.508609	614.591966	-62.629591	367.307203	675.415020	-97.067361	245.534838	537.417596	-67.087125	281.443634	534.845341	-158.928714	179.910941	510.989526	-114.602396	447.937165	445.773550	-105.977201	347.196364	445.301843	-38.681572	113.890307	918.100467	-449.825283	176.366549	857.122177	-444.674758	207.638368	875.897708	-435.862218	199.778275	771.369505	-435.021631	231.358525	663.068395	-408.073967	233.138099	654.100538	-289.983586	62.632068	340.302222	-374.962875	-0.883144	358.345286	-327.276700	115.939796	202.262120	-406.422737	190.380752	564.017224	-422.862788	170.349812	483.415727	-397.488815	113.885494	416.479813	-396.559520	195.337499	476.608331	-367.559108	186.117068	148.335414	-351.210756	-204.917840	868.371090	-220.769575	-50.395938	79.757582	-420.163709	-50.361231	79.670492	-22.820424	
1505	7.5250	507.617747	1256.449783	-87.206311	521.872995	1228.894023	-375.394802	517.176880	1313.449453	-236.256643	474.554918	1147.809450	-223.915668	504.455335	1026.444529	39.367069	705.809981	931.640460	-53.368647	483.624737	985.873188	-481.808383	700.590362	921.464822	-419.978127	-45.588925	1172.037539	-237.343523	117.693200	1124.428323	-403.427092	89.824846	1153.479180	-77.938895	133.990433	1073.001375	-370.602088	117.489772	1103.832953	-107.181395	-9.687124	1216.069773	-216.662776	-13.539789	1203.598543	-274.330624	81.309936	1102.778873	-38.871774	75.989167	1044.477543	-434.350547	186.803176	1034.840618	-37.932874	274.017672	1012.386946	-46.519874	336.292854	951.816952	-49.618228	287.333341	1041.140016	-68.733315	404.755376	874.177061	-75.550520	395.037458	846.038204	-187.485099	361.174435	756.230182	-46.775297	345.397330	671.301419	-64.219499	293.107228	602.312561	-62.910500	367.483761	664.919857	-97.224678	249.000131	525.123103	-67.451675	284.983825	523.389580	-159.182694	184.298871	496.995422	-114.934065	453.747402	439.394293	-105.649221	353.146664	435.564617	-39.232678	115.648774	919.876817	-450.138683	179.498526	860.472634	-445.122381	210.351780	879.895832	-436.290062	205.012673	775.176151	-435.991591	236.671840	666.835515	-409.082761	239.506750	658.060773	-291.427635	59.124351	349.068182	-375.274645	-4.176590	368.444463	-327.391899	109.626630	210.164317	-406.582418	193.583426	568.600854	-423.861597	171.285203	488.665730	-398.220738	112.965076	423.353186	-396.910411	195.902713	481.351512	-367.933905	178.781544	154.793814	-351.222913	-204.882438	868.323330	-220.784245	-50.408805	79.716138	-420.162376	-50.396406	79.614185	-22.813262	
1506	7.5300	508.242477	1256.237150	-87.499131	521.475416	1228.125290	-376.270706	517.217759	1312.963305	-237.439113	474.784958	1147.317701	-224.332213	503.671309	1025.389252	38.592698	705.473339	931.324760	-53.618268	483.416507	985.609512	-483.514551	700.167236	921.418540	-420.615048	-45.380977	1170.991401	-233.567070	117.777786	1123.648831	-403.528279	90.524708	1151.413480	-77.906187	133.523440	1072.287249	-370.979913	118.702246	1102.336636	-107.626413	-9.313281	1214.925445	-216.466752	-14.020708	1202.952826	-273.562612	80.788921	1098.825997	-39.518224	75.713730	1045.142143	-435.169249	186.860451	1029.280700	-37.883983	273.400363	1005.174690	-46.276429	334.162880	942.988649	-49.864777	287.249031	1033.575344	-68.613189	400.770054	863.156988	-75.285060	391.422081	834.275723	-186.276292	359.201469	745.047601	-46.836530	345.391778	659.830590	-64.508078	294.798913	589.655547	-63.413529	368.347882	653.910977	-97.415795	252.518486	513.066980	-67.684107	288.535753	511.891648	-159.271644	187.787502	484.002345	-114.761071	459.068138	431.952724	-105.556175	358.495395	426.163469	-39.243928	117.695203	922.023448	-450.312789	182.882196	864.137066	-445.598516	213.270168	884.187078	-436.797235	210.435374	779.499285	-437.201897	242.555113	670.748253	-410.463183	246.106253	661.933067	-293.135279	56.010294	358.074240	-375.602587	-7.034778	378.838490	-327.649278	103.850322	218.475627	-406.617738	197.018415	573.135362	-425.053300	172.357128	494.161004	-399.070237	112.160767	430.504009	-397.495168	196.815399	486.593576	-368.966276	171.961025	161.963039	-351.354801	-204.837119	868.254021	-220.822825	-50.437833	79.652928	-420.181538	-50.418438	79.582179	-22.820710	
